<?xml version="1.0" encoding="utf-8"?>
<!-- Generator: Adobe Illustrator 24.3.0, SVG Export Plug-In . SVG Version: 6.00 Build 0)  -->
<svg version="1.1" xmlns="http://www.w3.org/2000/svg" xmlns:xlink="http://www.w3.org/1999/xlink" x="0px" y="0px"
	 viewBox="0 0 750 500" style="enable-background:new 0 0 750 500;" xml:space="preserve">
<style type="text/css">
	.st0{display:none;}
	.st1{display:inline;}
	.st2{fill:#BF8D45;}
	.st3{fill:#FBF8D5;}
	.st4{fill:url(#SVGID_1_);}
	.st5{fill:#DF7CB2;}
	.st6{fill:#1D1D1B;}
	.st7{fill:#64A1CE;}
	.st8{fill:#231F20;}
	.st9{fill:#D73192;}
	.st10{opacity:0.26;}
	.st11{fill:#602D90;}
	.st12{fill:#ED2785;}
	.st13{fill:#FFFFFF;}
	.st14{fill:#641A0D;}
	.st15{fill:#9F449A;}
	.st16{fill:#ED298B;}
	.st17{fill:#EE7620;}
	.st18{fill:#CEC3A3;}
	.st19{fill:#211B1B;}
	.st20{fill:#527E99;}
	.st21{fill:#67190F;}
</style>
<g id="BACKGROUND" class="st0">
	<g class="st1">
		<rect x="0" y="-28.2" class="st2" width="750" height="499.4"/>
	</g>
</g>
<g id="OBJECTS">
	<g class="st0">
		<g class="st1">
			<path class="st3" d="M533.9,423.2c2.9-1.5,5.8-2.9,8.8-4.3c64.6-30.2,136.1-40.1,205.3-49.7l-0.1-1
				c-69.3,9.6-140.9,19.5-205.6,49.8c-3.2,1.5-6.3,3-9.3,4.6c-11.5-8.5-25-15.2-40-19.5c-27.4-7.8-59.1-8.2-99.6-1.1
				c-48.8,8.5-92.2,23.7-129,45.3c-25.4,14.9-47.7,32.8-66.2,53.2h1.3c18.3-20,40.4-37.7,65.4-52.3c36.7-21.5,79.9-36.7,128.6-45.1
				c40.4-7,71.9-6.7,99.2,1.1c14.7,4.2,28,10.7,39.3,19c-31.2,16.2-51.9,35.2-63.1,57.8c-3.3,6.6-5.4,13.2-6.4,19.6h1
				c0.9-6.2,3-12.7,6.2-19.1c11.1-22.5,31.8-41.3,63.1-57.5c15.2,11.5,26.7,26.2,32.7,42.9c4.2,11.7,5.2,23.5,3,33.8h1
				c2.2-10.5,1.2-22.4-3.1-34.1C560.6,449.5,549.1,434.7,533.9,423.2z"/>
		</g>
		<g class="st1">
			<path class="st3" d="M85.3,178.9c-12.8-4.4-24.1-11.5-32.8-20.8c-16.2-17.4-23.9-42.9-20.6-68.2c2.4-18.1,12.8-37.6,30.7-40.4
				c1.4-0.2,2.9-0.3,4.3-0.3c9.2,0,18.6,4.5,25.6,12.2c6.7,7.4,11.2,17.7,13.5,30.5C111.3,120.7,103.5,152.9,85.3,178.9z M357.6,0.3
				c-12.9,13.6-25.4,27.4-37.6,41.1c-27.1,30-55.1,61.1-85.9,88.3c-21.8,19.2-51.4,42.5-87.1,51.4c-21,5.2-42.3,4.3-60.6-1.8
				c18.3-26.1,26.1-58.5,20.8-87.5c-2.3-13-7-23.4-13.8-31C85,51.5,73.2,46.8,62.5,48.5c-18.5,3-29.2,22.9-31.6,41.3
				c-3.4,25.6,4.4,51.4,20.8,69c8.7,9.4,20.1,16.5,32.9,21c-0.7,1-1.4,1.9-2.1,2.9c-18.4,24.1-46.4,43-78.8,53.2
				c-0.9,0.3-1.8,0.5-2.6,0.8v1c1-0.3,2-0.6,2.9-0.9c32.6-10.2,60.8-29.3,79.3-53.6c0.8-1,1.6-2.1,2.3-3.2
				c18.6,6.3,40.2,7.2,61.5,1.9c36-8.9,65.7-32.3,87.6-51.6c30.8-27.2,58.9-58.3,86-88.4c12.5-13.9,25.2-27.9,38.3-41.7H357.6z"/>
		</g>
	</g>
	<g>
		<g>
			
				<image style="overflow:visible;opacity:0.6;" width="1018" height="1375" xlink:href="169FC7EB.png"  transform="matrix(0.24 0 0 0.24 37.9791 89.6283)">
			</image>
			<g>
				<g>
					<linearGradient id="SVGID_1_" gradientUnits="userSpaceOnUse" x1="44.9484" y1="241.6633" x2="265.0384" y2="241.6633">
						<stop  offset="0" style="stop-color:#000000"/>
						<stop  offset="1" style="stop-color:#FFFFFF"/>
					</linearGradient>
					<path class="st4" d="M263.2,93.2v296.9c0,2.5-2,4.5-4.5,4.5H47.6c-2.5,0-4.5-2-4.5-4.5V93.2c0-2.5,2-4.5,4.5-4.5h211.1
						C261.2,88.7,263.2,90.7,263.2,93.2z"/>
				</g>
			</g>
		</g>
		<g>
			<g>
				<path class="st5" d="M214.6,141.9c34.7,18.1-4.1,39.4-41.4,41.4c-22.8,1.2-41.4-18.5-41.4-41.4c0-22.8,18.5-41.4,41.4-41.4
					S194.4,131.3,214.6,141.9z"/>
			</g>
			<g>
				<g>
					<g>
						<path class="st3" d="M130.2,305.2l66.4-10.7l-22.5-99.3c0,0-50.3-11.7-67.4,10S130.2,305.2,130.2,305.2z"/>
					</g>
					<g>
						<g>
							<path class="st3" d="M112.3,175c0.3,1,4.9,28.6,4.9,28.6s-2,25.8,16.6,23.2c18.6-2.6,11.5-23.2,11.5-23.2l-7.4-24L112.3,175z
								"/>
						</g>
						<g>
							<path class="st6" d="M117.7,186.8c0,0,2.6,6.9,8.4,9.4c5.9,2.6,12,2.8,14-0.3c2-3.1,0.3-11,2-11.7c1.8-0.8-2.6-0.7-7.1,3.3
								c-4.6,4-5.1,5.6-10.5,3.1C119.2,188,117.7,186.8,117.7,186.8z"/>
						</g>
					</g>
				</g>
				<g>
					<g>
						<path class="st7" d="M135.6,288.4c0,0,28.6-6.1,41.6-15.6c13-9.4,11.5-18.6,11.5-18.6l-24-15.5c-3.2-2-7.4-1-9.3,2.2
							c-1.7,3-3.7,6.8-5,10.5c0,0-3.3-6.6-12-4.1c-8.7,2.6-16.9,6.9-16.9,6.9L135.6,288.4z"/>
					</g>
					<g>
						<g>
							<path class="st8" d="M220,394.6c-0.1-8.9-0.8-58.5-2-67.8c-0.5-3.5-3.2-8.4-6.7-13.3c-1-1.5-2.1-2.9-3.2-4.3
								c-2.3-3-4.7-5.8-6.7-8.2c-3.2-3.7-5.6-6.2-5.6-6.2l-3.8,0.3l-42.3,3.7l-28.5,2.5c0,0,5.8,16.3-2,17.4
								c-1.5,0.2-2.8,0.7-3.8,1.5c-4.2,3-4.7,9.4-4.7,9.4s-52.1,14.3-59.9,19.7c-7,4.9-3.7,38.1-2.9,45.3h41.7V380l14.6-2l56.8-4.1
								l0.7,20.8H220z"/>
						</g>
						<path class="st9" d="M162.9,394.6h-1c-0.1-2-0.3-4-0.4-6c-0.4-8.1-0.3-16.2-0.2-24.2c0.1-3.5,0.1-7.1,0.1-10.6
							c-0.1,0-0.3,0-0.4-0.2c-2.8-3.2-5.2-6.8-7.2-10.6c-0.3-0.6,0.6-1.1,0.9-0.5c1.9,3.6,4.1,6.9,6.7,10c0.1-4.3,0.1-8.7,0.2-13
							c0-0.7,1-0.6,1,0c-0.1,4.6-0.1,9.3-0.2,13.9C162.3,367.2,161.9,380.9,162.9,394.6z"/>
					</g>
				</g>
				<g>
					<path class="st8" d="M114.8,198.9c0,0-35.4,14.3-34.7,18c0.7,3.7,1.4,10.2,6.1,19.1s12.6,23.1,12.6,23.1s-2.7,7.8-1.4,12.6
						c1.4,4.8,8.9,38.1,8.9,38.1l26.2,14.3l3.1,15.7l13.3,1.7l-8.6-124.1c0,0-13.3,1.6-16.4-1.8
						C120.8,212.2,114.8,198.9,114.8,198.9z"/>
				</g>
				<g>
					<g class="st10">
						<g>
							<path class="st8" d="M211.3,313.5c-0.5,1.3-1.1,2.6-1.6,4c-6.1-7.3-12-14.7-17.7-22.3c-14.6-19.4-28.2-39.5-42-59.4
								c-1.5-2.1-4.5-5.5-5.3-8c-0.6-2.1,0.1-3.7,0-5.9c-0.1-2.9,0.3-4.5,0.6-7.5c0.3-0.4,0.6-0.8,0.8-1.2c-1.3-0.5-2.2-0.9-2.2-0.9
								l-6.6-17.9l3.7-1.4c0,0,0,0,0,0.1l0,0c0.2,0.3,1,1.5,2.2,3.3c0.6-0.3,1.2-0.7,1.8-1.1c3.8,3.8,7.2,8.1,7.9,13.1
								c0.6,4.6-1.3,8,0,12.4c2,6.6,6.9,11.7,11.4,17c12.3,14.5,23,29.8,33.5,45.7c5.4,8.2,10.2,16.7,13,26.1l-2.7-0.3
								C209.2,310.6,210.3,312.1,211.3,313.5z"/>
						</g>
					</g>
					<g>
						<path class="st8" d="M221.1,310.6l-10.3-1.1l-2.7-0.3l-1.3-0.1l-5.4-8L182,272.3c0,0-34.2-45.2-34.5-46
							c-0.3-0.8,2.3-16.1,2.3-16.9c0-0.8-4.1-1-4.1-1l-4.7-15.3l0,0l-0.6-2c1.6-0.3,3.2-0.6,4.7-1c3.2-0.6,6.3-1.3,9.5-1.9
							c2.3-0.5,4.6-1.2,7-1.1h0.2c2.5,0.1,4.9,0.8,7.3,1.4c1.5,0.4,3,0.8,4.5,1.2c0.9,0.2,2.1,0.3,2.5,1.1c0.5,0.9,0.4,2.2,0.7,3.2
							c0.4,2,0.8,3.9,1.2,5.9c0,0,4.3,12.5,15.3,29.1c11,16.6,21.4,15.8,21.4,15.8L221.1,310.6z"/>
					</g>
					<g>
						<g>
							<path class="st8" d="M154.9,208c-0.9,1.5-1.8,3.2-2.1,5c-0.3,1.6,0,3.2,0.8,4.7c0.8,1.6,2,2.9,3.1,4.3
								c1.2,1.6,2.4,3.2,3.6,4.7c4.9,6.3,9.7,12.7,14.6,19c9.8,12.7,19.5,25.5,29.3,38.2c5.5,7.1,10.9,14.2,16.4,21.4
								c0.4,0.5,1.3,0,0.9-0.5c-9.6-12.5-19.2-25.1-28.9-37.6c-9.6-12.5-19.1-24.9-28.7-37.4c-2.7-3.5-5.3-6.9-8-10.4
								c-1.2-1.5-2.3-3.2-2.3-5.2c0-2.1,1-4,2.1-5.7C156.1,208,155.2,207.5,154.9,208L154.9,208z"/>
						</g>
					</g>
					<g>
						<g>
							<path class="st8" d="M157.8,209.8c-2.6,5.1,1,10.6,4.1,14.5c4,5.1,8.2,10.2,12.3,15.2c8.3,10.1,16.8,20.1,25.4,30
								c4.8,5.6,9.7,11.1,14.6,16.6c0.4,0.5,1.1-0.2,0.7-0.7c-8.5-9.5-17-19.2-25.3-28.9c-8.3-9.7-16.4-19.6-24.5-29.6
								c-2.1-2.5-4.2-5.1-5.8-8c-1.4-2.7-2.3-5.8-0.8-8.7C159,209.7,158.1,209.2,157.8,209.8L157.8,209.8z"/>
						</g>
					</g>
				</g>
				<g>
					<path class="st3" d="M210.3,306.5l6.3-8.7l-11-12.3l-2.7,5.7l4.3,15.5C207.5,307.8,209.4,307.4,210.3,306.5z"/>
				</g>
				<g>
					<g>
						<path class="st11" d="M114,189.6c0.6-1,2.2-0.6,2.3,0.6c0.3,4.3,0.4,12.6,3.6,18.4c5.4,9.6,9.2,7.7,8.5,9.7l-14.6,13.7
							c-0.7,0.6-1.7,0.3-2-0.5l-8.1-24.8c-0.1-0.4-0.1-0.7,0.1-1L114,189.6z"/>
					</g>
					<g>
						<g>
							<path class="st11" d="M169.9,214.5c0,0-0.3,3.2-1.4,0.8c-1-2.4-3.9-2.2-7.3-3.7c-3.4-1.5-14.3,0.2-15.5-3.2
								c-1.2-3.3-7.7-21.5-7.7-21.5s-1.4-3.2,0.3-3.8c0.1,0,0.1,0,0.2,0c2.5-0.3,16.7,2.9,16.7,2.9l0.1,0.1L169.9,214.5z"/>
						</g>
						<g>
							<path class="st11" d="M142.6,183.6L142.6,183.6c5.1,0.8,12.7,2.5,12.7,2.5l0.1,0.1c-5.8,3.7-16.6,3.4-16.6,3.4
								s-0.7-0.2-0.8-1.6l0.8-0.8L142.6,183.6z"/>
						</g>
					</g>
				</g>
				<g>
					<g>
						<g>
							<path class="st12" d="M84.2,220.5c0,0-10.7,1-12,8.2c-1.3,7.1-5.4,70-5.4,70s-6.1,4.9-3.8,13.5c2.3,8.7,10.2,51.6,10.2,51.6
								s8.7,3.1,10.2,3.1s12.8-3.6,18.4-2c5.6,1.5,4.3-0.5,4.9-1.5c0.5-1,0.3-29.6,0.3-29.6s-0.8-2.6-4.9-3.8l4.1-27.6
								c0,0,8.4-56.4,2.3-67.4S84.2,220.5,84.2,220.5z"/>
						</g>
						<g>
							<g>
								<path class="st12" d="M107.2,373.1c0,2.5-25.6,1.8-25.6,1.8l-2.1-10.6c0.5-0.8,1.1-1.5,1.9-2.1c0.3-0.2,0.5-0.4,0.8-0.5
									c1.1-0.6,2.5-1.1,4-1.5c0.3-0.1,0.6-0.1,1-0.2c1.5-0.3,3.2-0.5,4.8-0.6l1,0c1.8-0.1,3.5,0,5.1,0c0.3,0,0.7,0,1,0.1
									c1.4,0.1,2.6,0.2,3.5,0.3l1,0.1c0.7,0.1,1,0.1,1,0.1S107.2,370.7,107.2,373.1z"/>
							</g>
							<g>
								<g>
									<path class="st12" d="M82.3,361.7c0.1,0.1,0.1,0.1,0.1,0.2c0.6,3.4,1.4,6.6,2.6,9.8c0.2,0.6-0.7,0.9-1,0.3
										c-1.2-3.2-2.1-6.5-2.6-9.8L82.3,361.7z"/>
								</g>
							</g>
							<g>
								<g>
									<path class="st12" d="M87.3,360c0.6,3.6,1.3,7.2,1.9,10.9c0.1,0.6-0.8,0.9-1,0.3c-0.7-3.6-1.3-7.2-1.9-10.9c0,0,0,0,0,0
										L87.3,360z"/>
								</g>
							</g>
							<g>
								<g>
									<path class="st12" d="M93.1,359.4c0.2,3.6,0.6,7.2,1.1,10.7c0.1,0.6-0.9,0.9-1,0.3c-0.6-3.6-1-7.3-1.2-10.9L93.1,359.4z"/>
								</g>
							</g>
							<g>
								<g>
									<path class="st12" d="M99.8,369.8c0.1,0.6-0.9,0.6-1,0c-0.2-3.5-0.4-6.9-0.6-10.4c0.3,0,0.7,0,1,0.1
										C99.3,362.9,99.5,366.4,99.8,369.8z"/>
								</g>
							</g>
							<g>
								<g>
									<path class="st12" d="M103.7,359.9c0.2,3.5,0.3,7,0.4,10.5c0,0.6-1,0.6-1,0c0-3.5-0.1-7.1-0.4-10.6L103.7,359.9z"/>
								</g>
							</g>
						</g>
						<g>
							<g>
								<g>
									<path class="st12" d="M65.8,309.2c6.3,1.8,12,5.7,16,10.9c0.4,0.5,1.3,0,0.9-0.5c-4.2-5.4-10-9.5-16.6-11.4
										C65.5,308.1,65.2,309.1,65.8,309.2L65.8,309.2z"/>
								</g>
							</g>
							<g>
								<g>
									<path class="st12" d="M84,322.7c1.5,1.9,3,3.8,4.5,5.6c0.2,0.2,0.5,0.2,0.7,0c0.2-0.2,0.2-0.5,0-0.7
										c-1.5-1.9-3-3.8-4.5-5.6c-0.2-0.2-0.5-0.2-0.7,0C83.8,322.2,83.8,322.5,84,322.7L84,322.7z"/>
								</g>
							</g>
						</g>
					</g>
					<g>
						<path class="st13" d="M109.6,393.6c-2.3-1-4.5-9.4-6.5-10.7c-1.4-1-0.1,7,0.1,11.7H84c-0.9-5.5-1.2-21.4-1.2-21.4
							c1.3-3.6,14.9-4.5,22-2.3c7.1,2.3,6.8,16.2,7.4,17.8C112.8,390.4,111.9,394.6,109.6,393.6z"/>
					</g>
				</g>
				<g>
					<g>
						<path class="st14" d="M131.3,217.7c0.2,13.7,0.3,27.5,0.5,41.2c0.1,13.8,0.3,27.6,0.4,41.5c0.1,7.7,0.2,15.4,0.3,23.1
							c0,0.6,1,0.6,1,0c-0.2-13.7-0.3-27.5-0.5-41.2c-0.1-13.8-0.3-27.6-0.4-41.5c-0.1-7.7-0.2-15.4-0.3-23.1
							C132.3,217.1,131.3,217.1,131.3,217.7L131.3,217.7z"/>
					</g>
				</g>
				<g>
					<g>
						<path class="st14" d="M135.3,217.3c-0.3,15.9-0.3,31.8-0.2,47.7c0.1,15.9,0.5,31.7,1.1,47.6c0.3,8.9,0.7,17.8,1.2,26.8
							c0,0.6,1,0.6,1,0c-0.8-15.9-1.4-31.8-1.8-47.7c-0.4-15.9-0.6-31.7-0.5-47.6c0-8.9,0.1-17.9,0.3-26.8
							C136.3,216.7,135.3,216.7,135.3,217.3L135.3,217.3z"/>
					</g>
				</g>
				<g>
					<g>
						<path class="st14" d="M80.3,221.9c4.3,9.6,9,19.1,14.2,28.3c1.5,2.6,3,5.2,4.5,7.8c0-0.1,0-0.3-0.1-0.4
							c-2.5,6.2-1.9,13.1-0.6,19.5c0.7,3.4,1.6,6.7,2.4,10.1c0.9,3.6,1.9,7.2,2.8,10.9c1,4,2.1,8,3.1,12.1c0.2,0.6,1.1,0.4,1-0.3
							c-1.6-6.3-3.2-12.5-4.8-18.8c-1.5-5.9-3.3-11.8-4.1-17.9c-0.4-2.9-0.6-5.8-0.3-8.8c0.1-1.4,0.4-2.8,0.8-4.2
							c0.2-0.7,0.4-1.3,0.7-2c0.1-0.3,0.2-0.4,0.1-0.7c-0.2-0.4-0.5-0.8-0.7-1.2c-3.1-5.3-6.1-10.7-8.9-16.1
							c-3.2-6.2-6.2-12.4-9-18.8C80.9,220.8,80,221.3,80.3,221.9L80.3,221.9z"/>
					</g>
				</g>
				<g>
					<g>
						<g>
							<path class="st15" d="M206.8,276.3l-6.3,8.8c0,0,15.3,16.8,17.1,15c1.8-1.7,7.9-10.7,7.9-10.7S214.8,273.9,206.8,276.3z"/>
						</g>
						<g>
							<g>
								<path class="st15" d="M205.7,281.8c-0.9,2.2-2,4.4-3.3,6.5c-0.3,0.6,0.5,1.1,0.9,0.5c1.2-2.1,2.3-4.2,3.3-6.5
									c0.1-0.3,0.1-0.5-0.2-0.7C206.2,281.5,205.9,281.5,205.7,281.8L205.7,281.8z"/>
							</g>
						</g>
						<g>
							<g>
								<path class="st15" d="M209,284.4c-1.3,2-2.4,4.1-3.3,6.3c-0.1,0.2,0.1,0.5,0.3,0.6c0.3,0.1,0.5-0.1,0.6-0.3
									c0.9-2.1,1.9-4.1,3.2-6C210.2,284.3,209.3,283.8,209,284.4L209,284.4z"/>
							</g>
						</g>
						<g>
							<g>
								<path class="st15" d="M213.1,286.9c-1.4,2-2.7,3.9-4.1,5.9c-0.4,0.5,0.5,1,0.9,0.5c1.4-2,2.7-3.9,4.1-5.9
									C214.3,286.8,213.4,286.3,213.1,286.9L213.1,286.9z"/>
							</g>
						</g>
						<g>
							<g>
								<path class="st15" d="M216.8,289.4c-1.6,1.9-3.1,4-4.3,6.2c-0.3,0.6,0.6,1.1,0.9,0.5c1.2-2.1,2.6-4.2,4.1-6
									C217.9,289.7,217.2,288.9,216.8,289.4L216.8,289.4z"/>
							</g>
						</g>
						<g>
							<g>
								<path class="st15" d="M219.4,292.5c-1.3,2.2-2.5,4.4-3.7,6.7c-0.3,0.6,0.6,1.1,0.9,0.5c1.1-2.3,2.3-4.5,3.7-6.7
									C220.6,292.4,219.7,291.9,219.4,292.5L219.4,292.5z"/>
							</g>
						</g>
					</g>
					<g>
						<g>
							<path class="st16" d="M162.2,192.2c0,0,12.8-4.6,20.6-1.4c3.6,1.5,5.3,1.6,6,1.3c1.1-0.5,2.2-0.7,3.3-0.3l51.4,17.8
								c2,0.7,3.5,2.4,4.2,4.4c0.3,0.9,1.1,1.8,2.8,2.1c1.7,0.3,3.3,0.5,4.6,0.7c1.8,0.3,3.2,1.7,3.4,3.6c1.6,3.2,3.8,8.7,4.4,15.7
								c0.6,6.8-0.6,12.4-1.5,15.8c0,0.5,0.1,1.2-0.2,2.1c-0.2,0.7-0.5,1.3-1,1.9l-32.7,41.2L202,279.1c0,0,3.5-25.2,12.4-32.3
								c0,0-20.6-5-31.9-18.1C171.1,215.6,162.2,192.2,162.2,192.2z"/>
						</g>
						<g>
							<g>
								<path class="st8" d="M231.4,235.2c-6.7,3.1-12.5,7.8-17.1,13.5c-4.5,5.7-7.9,12.4-9.6,19.5c-1,4-1.4,8.2-1.3,12.3
									c0,0.6,1,0.6,1,0c-0.2-7.2,1.3-14.3,4.3-20.9c3-6.5,7.4-12.4,12.9-17c3.1-2.6,6.5-4.8,10.2-6.5
									C232.5,235.8,232,235,231.4,235.2L231.4,235.2z"/>
							</g>
						</g>
						<g>
							<g>
								<path class="st8" d="M175.2,190.9c5.8-1.1,11.7,0.9,16.5,4.3c5,3.6,8.6,8.8,11.3,14.3c1.5,3.2,2.8,6.4,4,9.7
									c0.2,0.6,1.2,0.3,1-0.3c-2.2-6.1-4.7-12.2-8.6-17.4c-3.6-4.9-8.5-9-14.5-10.8c-3.2-1-6.6-1.3-9.9-0.7
									C174.3,190.1,174.6,191,175.2,190.9L175.2,190.9z"/>
							</g>
						</g>
						<g>
							<g>
								<path class="st8" d="M175.3,190.9c1.6,9.3,5,18.3,9.6,26.5c4.7,8.2,10.7,15.6,17.9,21.8c4,3.5,8.3,6.6,12.9,9.2
									c0.6,0.3,1.1-0.5,0.5-0.9c-8.1-4.7-15.3-10.7-21.4-17.8c-6.1-7.1-11-15.3-14.3-24c-1.9-4.9-3.3-10-4.2-15.2
									C176.1,190,175.2,190.3,175.3,190.9L175.3,190.9z"/>
							</g>
						</g>
						<g>
							<g>
								<path class="st8" d="M225,240c1.1-4,3.6-7.6,7-10c0.5-0.4,0-1.2-0.5-0.9c-3.6,2.6-6.3,6.3-7.4,10.6
									C223.8,240.3,224.8,240.6,225,240L225,240z"/>
							</g>
						</g>
					</g>
				</g>
				<g>
					<g>
						<path class="st6" d="M134,122.2c0,0-3.6,24.3,0,25.8c3.6,1.5,11.2,6.6,7.1,20.9c-4.1,14.3-2,20.4-2,20.4s18.4,1,19.9-8.2
							c0,0,2-5.6-0.5-12.8c-2.6-7.1-3.8-14.6-3.8-14.6c-1.1-6.1-2.2-12.2-3.3-18.3c-0.2-1.3-1.1-6-5.2-9.6
							C141.1,121.5,135.1,122.1,134,122.2z"/>
					</g>
					<g>
						<g>
							<path class="st3" d="M107.7,155.9c-0.5,1,1.5,22,3.8,25.8c3.5,5.8,12.9,11.7,19.7,9.8c3.1-0.9,5.8-2.8,8.3-4.9
								c5.3-4.4,6.6-8.7,7.8-15.2c0.6-3.5,1.5-6.9,1.8-10.4c0.9-10.7-7-22.6-17.7-24.9c-14.8-3.3-23,16.1-23,16.1L107.7,155.9z"/>
						</g>
						<g>
							<g>
								<g>
									<path class="st6" d="M132.6,156.7c1.9,0.7,3.7-0.5,5.4-1.3c1.5-0.8,3.3-1.2,4.5,0.3c0.4,0.5,1.2,2,2,1.3
										c0.9-0.7,0.1-2.2-0.5-2.9c-1.5-1.7-3.8-2-5.8-1.1c-1.9,0.8-3.5,2.4-5.6,2.8C132.1,156,132.2,156.6,132.6,156.7L132.6,156.7
										z"/>
								</g>
							</g>
							<g>
								<g>
									<path class="st6" d="M117.1,152.7c1.4,0.1,2.8,0.6,4,1.3c0.6,0.3,1.1,0.8,1.6,1.2c0.2,0.2,0.5,0.5,0.7,0.7
										c0.2,0.3,0.4,0.7,0.8,0.9c0.3,0.2,0.8,0,0.8-0.5c0-0.5-0.3-0.8-0.6-1.2c-0.2-0.3-0.5-0.6-0.8-0.8c-0.6-0.5-1.2-1-2-1.4
										c-1.4-0.7-3-1-4.5-0.7C116.9,152.4,116.9,152.7,117.1,152.7L117.1,152.7z"/>
								</g>
							</g>
							<g>
								<g>
									<path class="st17" d="M130.8,175.3c-1.6-0.9-2.9,0.9-3,1.1c0,0,0,0-0.1,0.1c-0.2-0.1-0.5-0.3-1-0.8
										c-1.8-1.4-6.2,3.1-6.2,3.1s1.5,3.4,4.5,4.2c3,0.8,2.9-0.9,3.3-0.6c0.4,0.3,1.8,0.5,1.8,0.5c3.3-0.1,5.4-5.1,5.4-5.1
										S132.5,176.3,130.8,175.3z"/>
								</g>
								<g>
									<ellipse class="st6" cx="128" cy="178.9" rx="2.1" ry="0.4"/>
								</g>
							</g>
						</g>
					</g>
					<g>
						<path class="st6" d="M132.2,123.4l-1-1.3c-2-1.8-17.1,0-25.3,2.6c-8.2,2.6-10,18.1-10,18.1c-1,3.7-2.4,7.9-4.1,12.3
							c-2,5-4.3,9.4-6.4,13.2c-0.1,0.3-1.9,5.8,1.6,9.9c1.7,2,3.9,2.7,4.9,3c-0.4,0.9-0.7,1.9-0.9,2.9c0,0.1,0,0.3-0.1,0.4
							c-0.1,0.5-0.1,1-0.1,1.5c0,6.3,5,11.5,11.1,11.5c1.8,0,3.4-0.4,4.9-1.2c4.1,0.9,8.1,0.5,9.9-2.8c1-1.7,1.2-6.1-0.1-7.8
							c-0.1-0.1-14-16.9,1.5-27.3C133.8,148,132.2,123.4,132.2,123.4z"/>
					</g>
					<g>
						<g>
							<path class="st3" d="M149.3,158.3C149.3,158.3,149.3,158.2,149.3,158.3c2.3-2.7,4.3-0.8,4.9,1.9c0.4,1.8,0.8,3.6,0.8,5.4
								c-0.1,2.7-3.7,10-7.4,7.7c-1.6-1-1.6-4.1-1.6-5.8C146,164.2,147.1,160.9,149.3,158.3z"/>
						</g>
						<g>
							<g>
								<path class="st17" d="M150.8,171.3c0,0.7-0.6,1.3-1.3,1.3s-1.3-0.6-1.3-1.3s0.6-1.3,1.3-1.3S150.8,170.6,150.8,171.3z"/>
							</g>
							<g>
								<path class="st17" d="M153.2,192.6c-0.1,0.1-0.3,0.1-0.5,0.2c-0.1-0.7-0.4-1.5-0.5-2.1c-0.3-1.7-0.6-1.6-0.9-3.4
									c0.1,1.6,0.2,3.6,0.3,5.8c-0.5,0.1-1,0.1-1.6,0.1c-0.3,0-0.7-0.1-0.9-0.2c-0.1-2-0.1-3.9-0.1-5.9c-0.2,1.9-0.5,3.8-0.7,5.6
									c-0.5-0.2-0.8-0.4-1-0.5l0.5-17.6c0.1-0.7,0.8-1.3,1.4-1.3c0.6,0,1.2,0.4,1.4,1C151.5,180.5,152.4,186.5,153.2,192.6z"/>
							</g>
						</g>
					</g>
				</g>
				<g>
					<path class="st3" d="M181.8,268.2c0,0-3.3,7.9,5.4,11.2c8.7,3.3,9.2,2.6,9.2,2.6l4.3,0.3L181.8,268.2z"/>
				</g>
				<g>
					<path class="st3" d="M200.7,282.3c0,0-11.2-9.7-19.4-2c-8.2,7.7-10.2,11.5-10.2,11.5l3.1,3.8l5.6,3.8l3.1,4.1
						c0,0,8.4-8.7,12.3-7.1c3.8,1.5,8.4,8.9,10.5,10.5c2,1.5,5.4,1.8,4.9-2.8C209.9,299.4,200.7,282.3,200.7,282.3z"/>
				</g>
			</g>
		</g>
	</g>
	<g class="st0">
		<g class="st1">
			
				<image style="overflow:visible;opacity:0.6;" width="1018" height="1376" xlink:href="169FC7E9.png"  transform="matrix(0.24 0 0 0.24 522.768 111.7792)">
			</image>
			<g>
				<g>
					<path class="st3" d="M748,115.4v296.9c0,2.5-2,4.5-4.5,4.5H532.4c-2.5,0-4.5-2-4.5-4.5V115.4c0-2.5,2-4.5,4.5-4.5h211.1
						C746,110.9,748,112.9,748,115.4z"/>
				</g>
			</g>
		</g>
		<g class="st1">
			<g>
				<circle class="st7" cx="629.1" cy="178.5" r="56"/>
			</g>
			<g>
				<g>
					<g>
						
							<ellipse transform="matrix(0.2493 -0.9684 0.9684 0.2493 292.1465 742.027)" class="st18" cx="624.7" cy="182.6" rx="19" ry="36.9"/>
					</g>
				</g>
				<g>
					<path class="st6" d="M609.6,160.3c0,0-13.6,32.7-13.3,42.2s56.5,35.7,56.5,35.7s1.4-56.5-0.3-61.3c-1.7-4.8,3.7-23.8-5.8-26.6
						C637.1,147.7,620.8,140.9,609.6,160.3z"/>
				</g>
			</g>
			<g>
				<g>
					<g>
						<g>
							<path class="st14" d="M629.9,213.9l-1.4,4.3c0,0,6.4,2.4,6.1,5.8c-0.3,3.3-6.7,8.8-16.7,8.2c-10-0.6-18.2-10.9-13.7-17.6
								c2.6-3.8,4.3-12.1,5.3-18.6c0.2-1,0.3-2,0.4-3c0.5-3.5,0.7-6,0.7-6c3.8-4.3,9.7-6,15.2-4.6c5.2,1.4,9.3,5.6,10.6,10.9
								l-1.4,4.4L629.9,213.9z"/>
						</g>
						<g>
							<path class="st19" d="M635.1,197.7l-5.1,16.2c-1.7,0.8-3.5,1.2-5,0.6c-3.6-1.4-12.1-13.8-15.4-18.6c0.2-1,0.3-2,0.4-3
								L635.1,197.7z"/>
						</g>
					</g>
					<g>
						<path class="st14" d="M607.4,303.4c0,0,52.1-6.1,52.1-10.2c0-4.1-8.7-54.1-8.7-54.1s-32.7-32.7-48.5-24.5
							c-15.8,8.2-23,10.2-23,10.2L607.4,303.4z"/>
					</g>
				</g>
				<g>
					<path class="st17" d="M648.9,237l-10.3,24.6l-14.1-13.1l-11.5-8.2l2.4,28.1c0,0,31.7-1.2,38.4,0.5c6.6,1.7-0.2-26.7-0.2-26.7
						L648.9,237z"/>
				</g>
			</g>
			<g>
				<path class="st14" d="M748,324.7c-3.8-4.6-9.1-10.6-9.1-10.6l-2.3,10.1l-4-3.5l2.6,11.7l3.6,10.1c0.4,1.2,2,1.4,2.7,0.4l2.8-3.5
					l0.3,0.4l3.4,2.9V324.7z"/>
				<g>
					<g>
						<path class="st7" d="M738.9,314.1c0,0-1.6,20-1.9,21.3c-0.3,1.3-6-0.3-8.2-1.3c-2.1-1.1-30.8-17.1-30.8-17.1s5.7,6.9,7.6,12.2
							c0.3,0.8,0.5,1.6,0.6,2.3c0.5,5.3-15,12.9-15,12.9l-32.4-56.6l-7.1-38.7l-20-16.1c0,0,0.5-1.7,0.9-3.6c0.6-2.3,1.2-5,1.2-5.9
							c0-1.6-5.5-4.5-5.5-4.5s-0.4-0.7-0.3-1.4v0c0-0.4,0.2-0.7,0.6-1c0.1-0.1,0.3-0.2,0.5-0.2c1.8-0.5,5.3,2.6,9.2,5.8
							c4,3.2,9,9.2,9,9.2c14.2,6.9,15.3,18.4,17.4,22.1c2.1,3.7,15.3,15.3,15.3,15.3s16.6,16.3,21.3,17.4
							c4.7,1.1,15.3,11.6,17.4,14.2C720.7,303.1,738.9,314.1,738.9,314.1z"/>
					</g>
					<g>
						<path class="st17" d="M632.6,229.4c0.6-2.3,1.2-5,1.2-5.9c0-1.6-5.5-4.5-5.5-4.5s-0.4-0.7-0.3-1.4v0c0.2-0.4,0.4-0.7,0.6-1
							c0.5-0.7,0.8-1.2,0.8-1.2s3.3,1.8,9,6.8c5.6,5,8.3,10.3,8.3,10.3S638.9,231.2,632.6,229.4z"/>
					</g>
					<g>
						<path class="st6" d="M691.2,344.4l-32.4-56.6l-7.1-38.7c0,0,23.4,50.4,41.2,67.9c5.7,5.6,9.8,9.5,12.8,12.3
							c0.3,0.8,0.5,1.6,0.6,2.3C706.8,336.8,691.2,344.4,691.2,344.4z"/>
					</g>
					<g>
						<g>
							<path class="st6" d="M664.1,252.6c5.3,10.3,10.7,20.6,16.1,30.8c5.5,10.2,11,20.4,16.7,30.6c3.2,5.7,6.4,11.4,9.6,17.1
								c0.3,0.6,1.2,0.1,0.9-0.5c-5.7-10.1-11.4-20.2-17-30.4c-5.6-10.2-11-20.4-16.4-30.7c-3-5.8-6-11.6-9-17.4
								C664.7,251.5,663.8,252,664.1,252.6L664.1,252.6z"/>
						</g>
					</g>
				</g>
			</g>
			<g>
				<g>
					<g>
						<path class="st14" d="M613,161.5c0,0-5.6,28.6-4.6,31.1c1,2.6,14.3,11.7,18.4,12.3c4.1,0.5,10.2-3.1,10.2-3.1
							s11.2-21.4,12.3-24.5s3.1-37.8-29.1-26L613,161.5z"/>
					</g>
					<g>
						<g>
							<g>
								<path class="st17" d="M631.4,189.6c-1.2-1.4-3-0.1-3.2,0c0,0-0.1,0-0.1,0c-0.1-0.2-0.3-0.5-0.7-1c-1.2-1.9-6.8,0.9-6.8,0.9
									s0.3,3.7,2.9,5.5c2.6,1.7,3.1,0.1,3.3,0.6c0.3,0.4,1.5,1.1,1.5,1.1c3.1,1,6.8-3.1,6.8-3.1S632.7,191.1,631.4,189.6z"/>
							</g>
							<g>
								<path class="st6" d="M629.6,192.9c-0.1,0.2-1,0-2.1-0.3c-1.1-0.4-1.9-0.8-1.9-1c0.1-0.2,1,0,2.1,0.3
									S629.6,192.7,629.6,192.9z"/>
							</g>
						</g>
						<g>
							<g>
								<g>
									<path class="st7" d="M637.4,178c-0.3,0-0.7-0.2-0.9-0.5c-0.1-0.1-1.9-3.2-5.2-2c-0.5,0.2-1.1-0.1-1.3-0.6
										c-0.2-0.5,0.1-1.1,0.6-1.3c3.9-1.4,6.7,1.3,7.6,2.9c0.3,0.5,0.1,1.1-0.4,1.4C637.7,178,637.5,178,637.4,178z"/>
								</g>
							</g>
							<g>
								<g>
									<polygon class="st6" points="615.9,166.6 619.2,177.1 629.4,177.4 631.6,172.5 									"/>
								</g>
							</g>
							<g>
								<g>
									<path class="st7" d="M629.4,178.4C629.4,178.4,629.4,178.4,629.4,178.4l-9.5-0.2c-0.9,0-1.7-0.6-2-1.4l-3.4-8.4l0,0
										c-0.3-0.8-0.1-1.7,0.5-2.4c0.6-0.6,1.5-0.8,2.4-0.5l13.5,5.4c1,0.4,1.5,1.4,1.3,2.5l-0.7,3.3
										C631.3,177.6,630.4,178.4,629.4,178.4z M616.4,167.6l3.4,8.4c0,0.1,0.1,0.1,0.2,0.1l9.4,0.2c0.1,0,0.2-0.1,0.2-0.1l0.7-3.3
										c0-0.1,0-0.2-0.1-0.2l-13.5-5.4c0,0-0.1,0-0.2,0C616.4,167.5,616.4,167.6,616.4,167.6L616.4,167.6z"/>
								</g>
							</g>
							<g>
								<g>
									<polygon class="st6" points="638.7,175.2 636.2,179.8 644.7,185.6 654.5,180 									"/>
								</g>
							</g>
							<g>
								<g>
									<path class="st7" d="M645.4,186.8c-0.4,0-0.9-0.1-1.2-0.4l-7.7-5.4c-0.9-0.6-1.2-1.7-0.7-2.7l1.4-3c0.4-1,1.5-1.5,2.5-1.2
										l14,3.6c0.9,0.2,1.5,0.9,1.6,1.8c0.1,0.9-0.2,1.7-1,2.2l-7.7,4.8C646.2,186.7,645.8,186.8,645.4,186.8z M639,176
										c-0.1,0-0.1,0-0.2,0.1l-1.4,3c0,0.1,0,0.2,0.1,0.2l7.7,5.4c0.1,0,0.1,0,0.2,0l7.7-4.8l0,0c0,0,0.1-0.1,0.1-0.2
										c0-0.1-0.1-0.1-0.1-0.2L639,176C639.1,176,639.1,176,639,176z"/>
								</g>
							</g>
						</g>
					</g>
				</g>
				<g>
					<path class="st3" d="M592.8,167.3c0,0,22-15.1,25.6-19.4s7-7.5,8.8-7.3c1.8,0.2,15.2-3.6,21.4,3.5c6.2,7.1,8.4,10.1,8.5,16.5
						c0.1,6.4,4.2,23.8,3.7,28.2c-0.6,4.4,2-5.5-10.9-14.3C637.1,165.8,613.4,159.1,592.8,167.3z"/>
				</g>
			</g>
			<g>
				<g>
					<path class="st14" d="M710,416.8h-32.7l-14.8-30.1c0,0,16.3-30.6,26.6-24.5c2.4,1.4,4.9,5.4,7.2,10.5
						C702.7,386.7,708.4,409.9,710,416.8z"/>
				</g>
				<g>
					<path class="st14" d="M649.3,387.7c0.1,10-1,19.8-3,29.1h-41.6l5.3-27.1l1-5.1c0.8-1.7,3.2-6,8.2-8.7c6.4-3.5,12.8-2,14.8-1.5
						c9.6,2.3,14.4,10.1,15.3,11.7C649.2,386.6,649.3,387.2,649.3,387.7z"/>
				</g>
				<g>
					<g>
						<path class="st3" d="M602.1,350.6c-0.2-4.7,1.8-3,4.6-3.6c19.1-3.7,32.6-7.4,33.5-8.9c0.9-1.5,1.3-5.8,1.3-5.8
							s-4.2-20.1-7.5-40.9c0,0,0.1,0,0.1-0.1c1.7-1,29.9-2.7,29.9-2.7c0.3,1.6,0.8,4.5,1.7,8c5.9,22.2,18.4,30.7,31,55.3
							c1.7,3.4,4.4,8.8,7.1,15.9c1,3.2,1.1,6.5,2.1,9.7c0.1,0.1-24.2,15.2-61,20.4c-35.8,5.1-44.2,4.4-44.2,4.4L602.1,350.6z"/>
					</g>
					<path class="st14" d="M706.5,377.9l-0.9,0.5c-6.8,3.5-13.7,6.6-20.8,9.4c-13.5,5.3-27.6,9.2-41.9,11.8
						c-13.7,2.5-27.5,3.6-41.4,3.5c-0.3,0-0.7,0-1,0c-0.1-0.3-0.1-0.7-0.1-1c-0.4-3.4-0.7-6.8-0.7-10.3c-0.2-14.3,2.2-28.5,2.3-42.8
						c0.3,0,0.7-0.1,1-0.2c0,3.4-0.2,6.7-0.4,10.1c-0.9,14.3-3.1,28.8-1.2,43.2c7.5,0.1,15-0.2,22.4-0.9c14.4-1.3,28.7-4.1,42.6-8.1
						c13.5-4,26.6-9.2,39-15.7c-0.3-2.2-0.8-4.4-1.3-6.6c-2.5-10-6.9-19.5-12.9-27.8c-0.4-0.5,0.5-1,0.9-0.5
						c1.7,2.4,3.3,4.8,4.7,7.4c4.8,8.4,8,17.6,9.6,27.1C706.4,377.2,706.4,377.5,706.5,377.9z"/>
				</g>
			</g>
			<g>
				<g>
					<path class="st7" d="M641.5,333c0,0-0.3,4.4-1.3,5.9c-0.9,1.6-14.4,5.3-33.5,9.1c-1.3,0.2-2.5,0.5-3.8,0.7
						c-0.3,0.1-0.7,0.1-1,0.2c-1.2,0.2-2.4,0.4-3.6,0.6c-15.3,2.3-27,2.3-27,2.3s2.5-8.1,0.9-10.3c-1.5-2-6.4-42-8.1-44.9
						c-0.1-0.1-0.2-0.2-0.2-0.1c-0.1,0-0.1,0.1-0.1,0.2c-1.2,3.8-6,10.3-8.8,13.5c-2.3,2.5-20.3,18.2-27.1,24.1v-58
						c1.6-1.7,4.3-4.4,8.7-8.7c13.5-13.2,21.6-36.3,26.9-43.5c5.3-7.2,30.4-8.5,30.4-8.5l0.1,0l11.2-2.5l12.1,10.2l0.2,0.1l0.7,0.3
						l0.6,0.2l4,1.7c0,0-0.3,5,0,8.5c0.3,3.4,7.5,17.5,7.5,17.5c-0.5,8.8,1.4,24.5,3.8,39.8C637.3,312.6,641.5,333,641.5,333z"/>
				</g>
				<g>
					<g>
						<path class="st6" d="M559.9,244.5c1.3,1.6,2.7,3.2,4,4.7c0.2,0.2,0.5,0.2,0.7,0c0.2-0.2,0.2-0.5,0-0.7c-1.3-1.6-2.7-3.2-4-4.7
							c-0.2-0.2-0.5-0.2-0.7,0C559.7,244,559.7,244.3,559.9,244.5L559.9,244.5z"/>
					</g>
				</g>
				<g>
					<g>
						<path class="st6" d="M565.1,242.3c-1.6,8.6-3.2,17.2-4.9,25.7c-0.5,2.5-0.9,4.9-1.4,7.4c-0.1,0.6,0.8,0.9,1,0.3
							c1.6-8.6,3.2-17.2,4.9-25.7c0.5-2.5,0.9-4.9,1.4-7.4C566.2,241.9,565.2,241.7,565.1,242.3L565.1,242.3z"/>
					</g>
				</g>
				<g>
					<g>
						<path class="st6" d="M559,274.7c1.6,7.2,3.3,14.4,4.9,21.6c0.1,0.6,1.1,0.4,1-0.3c-1.6-7.2-3.3-14.4-4.9-21.6
							C559.8,273.8,558.8,274.1,559,274.7L559,274.7z"/>
					</g>
				</g>
				<g>
					<path class="st6" d="M612.1,266.7l-0.8-8.3l-36.8,4.9l1.2,8.3l3.3,22.6l35-4.9L612.1,266.7z M576.9,271.9l-0.2-1.1l-1-6.6
						l34.7-4.6l0.6,6.6l0.1,1.1l1.9,21.2l-33.1,4.6L576.9,271.9z"/>
				</g>
				<g>
					<path class="st6" d="M611.4,258.4l-36.8,4.9l1.2,8.3h0l1,0.2l19.5,4.3l14.8-8.9l1-0.6L611.4,258.4z M596.2,275.1l-19.5-4.3
						l-1-6.6l34.7-4.6l0.6,6.6L596.2,275.1z"/>
				</g>
				<g>
					<g>
						<path class="st17" d="M590.9,210.5c0,0,10.9,18.4,13.9,18.9c3.1,0.6,11.7-3.9,11.7-3.9l3.3-3.9c0,0-20-12.5-21.4-14.5
							C597,205.2,590.9,210.5,590.9,210.5z"/>
					</g>
					<g>
						<path class="st19" d="M619.7,221.4c-2.7,2.2-6.3,4.5-10.9,6.4c-1.5,0.6-3,1.2-4.4,1.6c4.2,2.3,6.6,1.8,7.5,1.3
							c2.7-1.5,5.7-6.2,6.6-6.7c0.9-0.5,1.5-1.6,1.5-1.6L619.7,221.4z"/>
					</g>
				</g>
			</g>
		</g>
	</g>
	<g class="st0">
		<g class="st1">
			
				<image style="overflow:visible;opacity:0.6;" width="1018" height="1375" xlink:href="169FC7EF.png"  transform="matrix(0.24 0 0 0.24 261.399 96.175)">
			</image>
			<g>
				<g>
					<path class="st3" d="M486.6,99.7v296.9c0,2.5-2,4.5-4.5,4.5H271c-2.5,0-4.5-2-4.5-4.5V99.7c0-2.5,2-4.5,4.5-4.5h211.1
						C484.6,95.2,486.6,97.2,486.6,99.7z"/>
				</g>
			</g>
		</g>
		<g class="st1">
			<g>
				<path class="st20" d="M266.7,327.1l-0.4-0.9c3.5-1.5,6.6-2.2,9.3-2.2c7.3,0.2,12-5.9,17.1-12.2c2-2.5,4-5.1,6.2-7.3
					c9.2-9,22.4-10.9,35.3-12.8c3-0.4,6-0.9,8.9-1.4c2.4-0.4,4.9-0.9,7-2.2c2.8-1.7,4.8-4.5,6.8-7.3l0.2-0.3
					c6.5-9.3,13.9-18.2,21.8-26.4c1.1-1.1,2.3-2.1,3.8-2c0.9,0.1,1.7,0.6,2.4,1.1c0.3,0.2,0.7,0.5,1,0.7c1.9,1,4.4,0.2,6.4-0.7
					c18.8-8.1,32.6-24,46-39.5c7-8.1,14.2-16.5,22.2-23.7c1.9-1.7,4-3.3,6.4-2.9c0.9,0.1,1.8,0.5,2.6,0.9c1,0.5,1.9,0.9,2.9,0.8
					c1.7-0.1,2.9-1.7,3.9-3.2l2.6-3.9c2.4-3.6,4.9-7.2,7.3-10.8l0.8,0.6c-2.4,3.6-4.9,7.2-7.3,10.8l-2.6,3.9
					c-1.2,1.8-2.6,3.5-4.6,3.6c-1.2,0.1-2.3-0.4-3.4-0.9c-0.8-0.4-1.5-0.7-2.3-0.8c-2-0.3-3.8,1.1-5.5,2.7
					c-7.9,7.2-15.1,15.5-22.1,23.6c-13.4,15.5-27.3,31.6-46.3,39.7c-2.1,0.9-4.9,1.8-7.2,0.7c-0.4-0.2-0.8-0.5-1.1-0.7
					c-0.6-0.4-1.2-0.8-1.9-0.9c-1.1-0.1-2.1,0.8-3,1.7c-7.9,8.2-15.2,17-21.7,26.3l-0.2,0.3c-2,2.8-4,5.8-7.1,7.6
					c-2.3,1.3-4.9,1.9-7.3,2.3c-2.9,0.5-6,1-9,1.4c-12.7,1.8-25.8,3.7-34.7,12.5c-2.2,2.1-4.2,4.7-6.1,7.2
					c-4.9,6.3-10,12.8-17.9,12.6C273.1,325,270,325.7,266.7,327.1z"/>
			</g>
			<g>
				<path class="st7" d="M486.6,188.9v207.7c0,2.5-2,4.5-4.5,4.5H271c-2.5,0-4.5-2-4.5-4.5v-53.9c3.8-1.8,7.5-2.9,10.6-2.8
					c10.6,0.2,16-12.2,23.6-19.7c11.2-11,28.5-11.3,44-14c2.5-0.4,5-1,7.2-2.3c3-1.8,5.1-4.8,7.1-7.7c6.5-9.3,13.8-18.1,21.8-26.3
					c0.9-1,2-2,3.4-1.9c1.2,0.1,2.1,1.1,3.2,1.7c2.1,1.1,4.6,0.3,6.8-0.7c28.7-12.3,45.2-42.2,68.3-63.3c1.7-1.5,3.7-3.1,6-2.8
					c2,0.3,3.6,1.9,5.6,1.8c1.9-0.1,3.2-1.9,4.2-3.4C481,197.2,483.8,193.1,486.6,188.9z"/>
			</g>
		</g>
		<g class="st1">
			<g>
				<path class="st17" d="M356.4,180.8c0,0,1,22.2-0.5,27.3c-1.5,5.1-5.1,2.3-10,7.4c-4.9,5.1-3.1,21.7-3.1,21.7l17.9,22.7
					c0,0,5.1-50.8,7.4-51.8c2.3-1,11-2,11-2l4.1-14.6c-0.4-7.3-5.4-13.5-12-15.1C363.1,174.4,356.8,180.4,356.4,180.8z"/>
			</g>
			<g>
				<g>
					<path class="st17" d="M309.3,390.4c0.2,0.4,4.3,6.8,3.4,10.4c0,0.1-0.1,0.2-0.1,0.3h-8.1c-1.4-4-4.5-12.7-5.3-15.8
						c-1-4,4.7-9.8,4.7-9.8l10.4,2c0,0,0,2.4-1.3,8.8C311.7,392.4,309.5,390.5,309.3,390.4z"/>
				</g>
				<g>
					<g>
						<path class="st14" d="M305.4,381.9c1.6,1.8,1.2,4.3,1.2,6.5c0,0.6,0,1.3,0,1.9c0,0.4,0.1,0.9,0.5,1.1c0.5,0.3,1.2,0.3,1.7,0.5
							c0.7,0.1,1.3,0.3,2,0.4c0.3,0.1,0.5-0.1,0.6-0.3c1-3.7,2-7.3,2.8-11c0.1-0.6-0.8-0.9-1-0.3c-0.9,3.7-1.8,7.4-2.8,11
							c0.2-0.1,0.4-0.2,0.6-0.3c-0.6-0.1-1.2-0.3-1.8-0.4c-0.4-0.1-1.5-0.2-1.7-0.5c-0.1-0.2-0.1-0.7-0.1-0.9c0-0.3,0-0.6,0-0.8
							c0-0.6,0.1-1.3,0.1-1.9c0.1-2-0.1-4.1-1.5-5.7C305.7,380.7,305,381.4,305.4,381.9L305.4,381.9z"/>
					</g>
				</g>
			</g>
			<path class="st6" d="M414,306.8c0,0,6.1,8,8.9,7.3c2.9-0.6,9.6-7.7,9.6-7.7l3.5-3.8l2.9-14l-13.7-73c0,0-30-15-31.6-17.9
				c-1.1-1.9-1.5-6.2-1.8-8.9c-0.1-1.3-0.1-2.3-0.1-2.3l-31.5,0.3l-4.3,3.1L331,208.4l-9.1,6.6l3.5,13.1l-8.9,3.8
				c0,0,1.2,46.7,1.9,91c-6.5,16.4-18.8,48.1-18.4,49.4c0.6,1.8,11.4,9.4,16.7,8.8c0.8-0.1,1.5-0.3,2.2-0.5
				c-0.1,11.4-0.3,19.1-0.8,20.6h119.2c0,0-2.9-57.4-19.1-87.3L414,306.8z"/>
			<g>
				<g>
					<path class="st17" d="M354.4,179.2c0.2,0.9,3.4,26.2,2,28.1s-9.2,6.5-9.2,6.5l-6.2,27.5l19.7,25.3l25.8-27.9l-5-33.7l-1.5-4.2
						l1.3-3.9l4.4-13.3c-2.1-1.7-7.9-6.1-16.5-6.8C362.3,176.1,356.9,178.1,354.4,179.2z"/>
				</g>
				<g>
					<path class="st6" d="M355.6,183.3c0.4,0.1,1.5,2.5,1.7,2.9c3.9,6.4,7.9,13.1,14.6,16.9c1.2,0.7,2.4,1.2,3.8,1.2
						c4.3-0.2,6.4-5.2,7.4-8.7c0,0-1.2,4.3-10.3-0.9c-9-5.1-16-11.2-16-11.2L355.6,183.3z"/>
				</g>
			</g>
			<g>
				<g>
					<path class="st3" d="M382.7,360.8c0.6,3.8-19.1,3.1-21.3,3.2c-4.9,0.2-9.9,0.6-14.8,1.1c-2.4,0.2-4.7,0.5-7.1,0.8
						c-1.5,0.2-5.5,1.4-6.7,0.6c-1.9-1.3-1.3-6.7-1.2-8.5c0.3-8.9,1.9-17.8,3.6-26.6c0.2-0.1,0.4-0.2,0.4-0.5c0-0.5,0-1,0-1.5
						c0.2-1,0.4-2,0.6-3c2.2-11.5,5-22.9,7.1-34.4c0.3-1.5,0-3.1-0.8-4.5l-7.2-12.9l-0.5-0.9c-0.2-0.3-0.3-0.6-0.5-0.9
						c-2.3-4.6-3-9.9-1.9-15c2.2-10.5,6-27.5,7.3-30.7c1.9-4.5,7.9-14,8.5-14.9c-0.5,0.9-2.2,7.2-3.2,13.1c-1.2,7,0.3,14.3,4.1,20.3
						c3.8,5.9,11.4,12.2,12.1,12.4C362.2,258.4,378.8,335.5,382.7,360.8z"/>
				</g>
				<g>
					<path class="st17" d="M381.1,401.1h-39.7c-1.5-12.1-2.9-24.2-4.4-36.4c4.6-1.5,11.4-3.2,19.7-3.4c7.9-0.2,14.4,1.1,19,2.4
						C377.4,376.2,379.3,388.6,381.1,401.1z"/>
				</g>
			</g>
			<g>
				<path class="st3" d="M335.5,329.4c0,0.5,0,1,0,1.5c0,0.3-0.2,0.4-0.4,0.5C335.3,330.7,335.4,330,335.5,329.4z"/>
			</g>
			<g>
				<g>
					<path class="st17" d="M385.8,139.4c1.8,1,7.3,3.8,10.1,9.7c0.4,0.9,2.1,6.7,0.9,13.3c-0.6,3.2-1.4,3.1-2,7.1
						c-0.7,4.1-0.1,5.7-1.1,9.2c-0.1,0.5-0.4,1.2-2.4,5.4c-4.8,9.6-6.4,10.4-7.3,11.7c-1.4,2-4,2.8-6.3,1.8c-6.8-2.8-20.3-9-23-14.5
						c-3.6-7.4,9.4-37,9.4-37s13-7.7,17.4-7.1C385.8,139.4,385.8,139.4,385.8,139.4z"/>
				</g>
				<g>
					<g>
						<path class="st7" d="M371,184.4c0,0,6.1,6.8,9.3,6.2c3.2-0.6,5.3-3.9,5.3-3.9s1.3-5,0.2-5.3c-1.5-0.5-3.4,2.5-3.4,2.5
							s-0.5-4.4-5.8-2.2C371.4,184,371,184.4,371,184.4z"/>
					</g>
					<g>
						<g>
							<path class="st6" d="M363.6,157.6c1.3,0.4,2.7,0.7,4.1,0.6c1.4-0.1,2.8-0.5,4.1-0.2c1,0.2,2,0.7,2.8,1.4
								c0.4,0.4,0.7,0.8,1,1.2c0.3,0.5,0.4,1,0.8,1.4c0.3,0.4,1.1,0.2,1.1-0.3c0.2-1.2-0.7-2.4-1.5-3.2c-0.9-0.9-1.9-1.5-3.1-1.9
								c-1.4-0.4-2.7-0.2-4.1,0.1c-1.6,0.3-3.4,0.4-5,0.3C363.3,157,363.2,157.5,363.6,157.6L363.6,157.6z"/>
						</g>
					</g>
					<g>
						<g>
							<path class="st6" d="M388.3,164.4c0.7-0.5,1.4-1,2-1.5c0.6-0.5,1.3-1,2.1-1.3c0.7-0.3,1.4-0.4,2.1-0.3c0.4,0,0.7,0.2,1.1,0.2
								c0.3,0,0.7,0.1,1,0.1c0.2,0,0.3-0.2,0.3-0.4c-0.1-0.4-0.4-0.6-0.7-0.9c-0.4-0.4-0.8-0.5-1.4-0.5c-0.9-0.1-1.9,0-2.8,0.4
								c-0.9,0.4-1.8,0.9-2.5,1.5c-0.8,0.7-1.3,1.5-1.9,2.3C387.2,164.3,387.9,164.7,388.3,164.4L388.3,164.4z"/>
						</g>
					</g>
				</g>
			</g>
			<g>
				<g>
					<path class="st21" d="M384.6,140.4c-2.2-0.9-18.9,4.9-18.9,4.9s-11.2,32.8-11.4,33.9c-0.1,0.6,0.8,5.7,1.5,10.9L331,208.4
						l0.2-1c0,0,16.1-60.9,22.5-68.9s27.3-8.1,27.3-8.1S386.8,141.3,384.6,140.4z"/>
				</g>
				<g>
					<path class="st21" d="M382.6,130.9l4.7,9.6c0,0,8.9,6.1,9.1,14c0.2,7.9-1.8,15.1-1.8,15.1s-1.2,8.9-2.4,11.7
						s-11.4,18.3-11.4,18.3l-1.8,6.5l17.9-0.9l4.2-45.9c0,0,2.2-16.4-18-28.8C382.9,130.2,382.5,130.5,382.6,130.9z"/>
				</g>
			</g>
			<g>
				<path class="st6" d="M418.1,313.8c6.2,14.3,12.4,28.9,18.6,43.6c6.1,14.7,12.1,29.2,18,43.6c-24.1,0-48.1,0.1-72.2,0.1
					c-1.1-5.2-5.7-27.1-8.5-39.6c-3.2-14.2-16.2-113.4-16.6-123.7c-0.4-10.3,8.7-31.2,8.7-31.2l12.9-0.6c0,0,0,0,0.9-5.3
					c0.9-5.1,11.2-11.4,11.8-11.8c0.2,2.7,0.7,7,1.8,8.9c1.6,2.9,31.6,17.9,31.6,17.9l13.7,73l-2.9,14l-3.5,3.8
					C427.7,308.9,422.9,311.4,418.1,313.8z"/>
			</g>
			<g>
				<g>
					<path class="st7" d="M335.5,328.9c0.1-6.8,0-13.7,0-20.5c-0.1-8-0.2-16-0.2-24c0-3.2,0-6.5,0-9.7l-0.5-0.9
						c-0.2-0.3-0.3-0.6-0.5-0.9c-0.1,7.3,0,14.5,0,21.8c0.1,8,0.2,16,0.2,24.1c0,4,0,8,0,12c0,0.3,0.2,0.5,0.5,0.5
						C335,330.5,335.2,329.7,335.5,328.9z"/>
				</g>
			</g>
			<g>
				<g>
					<path class="st17" d="M359.9,160c0,0-14.6-10.5-12.2,11.7c0,0,0.6,4.9,7.1,4.9C361.3,176.6,359.9,160,359.9,160z"/>
				</g>
				<g>
					<path class="st7" d="M353.5,192.8c-6,0-10.9-5.2-10.9-11.5c0-6.3,4.9-11.5,10.9-11.5v1c-5.5,0-9.9,4.7-9.9,10.5
						c0,5.8,4.5,10.5,9.9,10.5c0.9,0,1.8-0.1,2.6-0.4l0.3,1C355.4,192.7,354.5,192.8,353.5,192.8z"/>
				</g>
			</g>
			<path class="st7" d="M428,364.8c-1.7-7.1-3.8-14.2-6.3-21l-0.1-0.4c-0.1-0.3-0.4-0.4-0.6-0.3c0,0,0,0,0,0c-0.1,0-0.1,0-0.2,0
				c0,0,0,0,0,0h0c-7.7,2.9-14.8,6.9-21.3,11.9c-1.7,1.3-3.3,2.7-4.9,4.1l0,0c-0.1,0-0.3,0.1-0.3,0.3c0,0.1,0,0.2,0,0.3
				c0.1,0.2,0.2,0.5,0.2,0.8c1.7,5.1,3.5,10.3,6,15.1c1.3,2.4,2.8,4.7,4.6,6.9c1.7,2,3.7,4.1,6.2,5.1c2.8,1.1,5.8,0,8.2-1.5
				c2.3-1.3,4.6-2.9,6.5-4.8c1.8-2,3.1-4.3,3.3-7C429.6,371.1,428.7,367.9,428,364.8z M426.7,378.9c-1.4,2.1-3.5,3.7-5.6,5.1
				c-2.3,1.5-5,3.2-7.8,3c-2.7-0.2-4.8-2.3-6.6-4.2c-1.8-2-3.3-4.2-4.6-6.5c-2.9-5.1-4.9-10.8-6.7-16.4c5.9-5.4,12.5-9.8,19.7-13.2
				c1.9-0.9,3.8-1.7,5.8-2.4c2.1,5.7,3.9,11.5,5.4,17.4c0.8,3,1.6,6,2,9.1C428.6,373.5,428.3,376.4,426.7,378.9z"/>
			<path class="st7" d="M424.8,268.4c-3.1-2.8-6.9-4.8-11-5.9c-0.1,0-0.2,0-0.2,0c-1-0.6-2-1.3-2.9-1.9c-0.3-0.2-0.6-0.4-0.9-0.6
				c2.7-9.3,5-18.6,7-28c0.1-0.6-0.8-0.9-1-0.3c-0.6,2.7-1.2,5.4-1.8,8.1c-0.7-2.4-1.4-4.8-2.4-7.1c-0.2-0.6-1.2-0.3-1,0.3
				c1.1,2.8,2.1,5.8,2.8,8.8c0,0,0,0.1,0.1,0.1c-1.4,5.9-2.9,11.8-4.6,17.6c-5-3.4-9.8-7.1-14.2-11.1c-2.8-2.5-5.5-5.2-8-8
				c-0.1-0.2-0.3-0.2-0.5-0.1c0-0.2,0-0.4-0.2-0.5c-2.3-1.1-5.2-0.9-7.3,0.6c-0.5,0.4,0,1.2,0.5,0.9c1.8-1.3,4.3-1.5,6.3-0.6
				c0.1,0.1,0.3,0.1,0.4,0c0,0.1,0,0.3,0.1,0.4c4.5,4.9,9.4,9.5,14.7,13.7c2.6,2.1,5.3,4,8,5.8c0.2,0.1,0.4,0.3,0.7,0.4h0
				c2.2,1.5,4.6,2.9,6.7,4.4c2.7,2,5.1,4.3,6.6,7.3c0.3,0.6,1.1,0.1,0.9-0.5c-1.6-3.2-4.2-5.6-7.1-7.7c2.8,1.1,5.4,2.7,7.7,4.8
				C424.5,269.5,425.2,268.8,424.8,268.4z"/>
			<g>
				<path class="st17" d="M381,237.4c-0.2-0.4-0.4-0.8-0.8-1.4c-1-1.6-1.8-3.3-2.6-4.9c-1.3-2.6-2.4-5.2-3.6-7.8
					c0,0-1.7-0.1-3.3,0.2c0,0.6-0.1,1.1-0.2,1.7c0,0.2,0,0.3,0,0.5l-0.4,8.4l-9.1-8.9c0,0-3.7,2.2-4,4c-0.2,1.7,1.2,3.5,1.2,3.5
					l-4,2.7l-1,4.9l0.7,3.2l-1.2,4.7l11.1,11.4l1.5,0.2c0.8-3,1.8-6.1,3.2-8.9c2.3-4.6,7.6-6.6,11.1-10.3
					C381.1,239.2,381.4,238.4,381,237.4z"/>
				<g>
					<path class="st14" d="M355.6,247.8c0.3,0.6,1.1,0.1,0.9-0.5c-0.8-1.7-1.5-3.4-2.1-5.2c-0.1-0.4-0.4-0.9-0.3-1.3
						c0.1-0.4,0.4-0.8,0.6-1.2c0.3-0.6,0.6-1.3,0.8-1.9c0.5,0.8,1,1.6,1.5,2.4c0.8,1.1,1.5,2.3,2.3,3.4c0.4,0.5,1.2,0,0.9-0.5
						c-1.2-1.8-2.5-3.7-3.6-5.6c-0.3-0.4-0.5-0.9-0.7-1.4c-0.2-0.5-0.5-0.9-0.1-1.4c0.7-0.8,1.4-1.6,2.3-2.2c0,0,0.1-0.1,0.1-0.1
						c1.3,1.9,3.1,3.4,4.2,5.5c0.3,0.6,1.2,0.1,0.9-0.5c-1.1-2.1-2.9-3.6-4.2-5.6c-0.7-1-1.5-2.4-0.6-3.5c0.8-1,1.9-1.9,3-2.6
						c0.5-0.3,0-1.2-0.5-0.9c-1.2,0.8-2.4,1.7-3.3,2.8c-0.9,1.1-0.8,2.4-0.1,3.6c0.1,0.1,0.2,0.3,0.2,0.4c-0.1,0-0.2,0-0.4,0.1
						c-0.9,0.7-1.8,1.6-2.5,2.5c-0.5,0.7-0.2,1.6,0.2,2.4c-0.1,0.1-0.2,0.1-0.2,0.3c-0.3,0.9-0.6,1.9-1.1,2.7
						c-0.2,0.4-0.5,0.8-0.5,1.2c0,0.5,0.2,0.9,0.3,1.3C354,244.1,354.8,246,355.6,247.8z"/>
					<path class="st14" d="M364.5,259.6c-3.5-3.8-7-7.6-10.5-11.4c-0.4-0.5-1.1,0.2-0.7,0.7c3.5,3.8,7,7.6,10.5,11.4
						C364.2,260.8,364.9,260.1,364.5,259.6z"/>
				</g>
			</g>
			<path class="st7" d="M422.2,314.5c-3.6-1.9-6.5-4.5-9.7-7c-3.4-2.7-6.8-5.3-10.1-8c-0.3-0.2-0.5-0.4-0.8-0.6
				c-2.6-2.1-5.2-4.3-7.7-6.5c-6.3-5.5-12.5-11.1-18.6-16.9c-3.4-3.3-6.8-6.6-10.1-10c-0.3-2.1-0.2-4.3,0.3-6.4
				c0.2-0.6-0.8-0.9-1-0.3c-0.6,2.4-0.7,4.9-0.3,7.3c0.1,0.3,0.3,0.4,0.5,0.3c5.8,5.9,11.7,11.7,17.8,17.3
				c6,5.5,12.2,10.9,18.6,16.1c-1.4,6.5-1.3,13.4,0.4,19.9c0.1,0.6,1.1,0.4,1-0.3c-1.5-6.2-1.7-12.6-0.5-18.9
				c3.5,2.9,7.2,5.8,10.8,8.6c0,0,0.1,0,0.1,0.1c2.6,2.4,5.5,4.5,8.6,6.2C422.3,315.7,422.8,314.8,422.2,314.5z"/>
		</g>
	</g>
</g>
</svg>
